<svg width="31" height="30" viewBox="0 0 31 30" fill="none" xmlns="http://www.w3.org/2000/svg">
<path d="M20.0145 24.3712L10.8792 15L20.0145 5.62875C20.178 5.46132 20.2696 5.23655 20.2696 5.0025C20.2696 4.76845 20.178 4.54368 20.0145 4.37625C19.9351 4.29518 19.8403 4.23077 19.7356 4.1868C19.631 4.14284 19.5186 4.12019 19.4051 4.12019C19.2916 4.12019 19.1792 4.14284 19.0746 4.1868C18.97 4.23077 18.8751 4.29518 18.7957 4.37625L9.07533 14.3456C8.90468 14.5207 8.80917 14.7555 8.80917 15C8.80917 15.2445 8.90468 15.4793 9.07533 15.6544L18.7938 25.6237C18.8733 25.7054 18.9684 25.7703 19.0734 25.8146C19.1783 25.8589 19.2911 25.8817 19.4051 25.8817C19.5191 25.8817 19.6319 25.8589 19.7368 25.8146C19.8418 25.7703 19.9369 25.7054 20.0164 25.6237C20.1799 25.4563 20.2715 25.2315 20.2715 24.9975C20.2715 24.7634 20.1799 24.5387 20.0164 24.3712H20.0145Z" fill="#E4E4E4"/>
</svg>
