<svg width="51" height="50" viewBox="0 0 51 50" fill="none" xmlns="http://www.w3.org/2000/svg">
<path d="M41.5852 16.6437L25.967 31.8687L10.3489 16.6437C10.0698 16.3712 9.69525 16.2186 9.30518 16.2186C8.91511 16.2186 8.54052 16.3712 8.26147 16.6437C8.12636 16.7761 8.01902 16.9342 7.94574 17.1085C7.87246 17.2829 7.83472 17.4702 7.83472 17.6594C7.83472 17.8485 7.87246 18.0358 7.94574 18.2102C8.01902 18.3846 8.12636 18.5426 8.26147 18.675L24.8765 34.875C25.1682 35.1594 25.5596 35.3186 25.967 35.3186C26.3745 35.3186 26.7658 35.1594 27.0576 34.875L43.6726 18.6781C43.8087 18.5456 43.9168 18.3872 43.9907 18.2123C44.0645 18.0373 44.1026 17.8493 44.1026 17.6594C44.1026 17.4695 44.0645 17.2815 43.9907 17.1065C43.9168 16.9315 43.8087 16.7731 43.6726 16.6406C43.3936 16.368 43.019 16.2155 42.6289 16.2155C42.2388 16.2155 41.8642 16.368 41.5852 16.6406V16.6437Z" fill="#E4E4E4"/>
</svg>
