<svg width="60" height="61" viewBox="0 0 60 61" fill="none" xmlns="http://www.w3.org/2000/svg">
<path d="M11.2574 40.029L29.9999 21.7583L48.7424 40.029C49.0773 40.3561 49.5268 40.5392 49.9949 40.5392C50.463 40.5392 50.9125 40.3561 51.2474 40.029C51.4095 39.8701 51.5384 39.6805 51.6263 39.4712C51.7142 39.2619 51.7595 39.0372 51.7595 38.8102C51.7595 38.5832 51.7142 38.3585 51.6263 38.1492C51.5384 37.9399 51.4095 37.7503 51.2474 37.5914L31.3087 18.1507C30.9585 17.8094 30.4889 17.6183 29.9999 17.6183C29.5109 17.6183 29.0413 17.8094 28.6912 18.1507L8.7524 37.5877C8.58912 37.7466 8.45933 37.9367 8.37072 38.1467C8.2821 38.3567 8.23644 38.5823 8.23644 38.8102C8.23644 39.0381 8.2821 39.2637 8.37072 39.4737C8.45933 39.6837 8.58912 39.8738 8.7524 40.0328C9.08727 40.3598 9.5368 40.543 10.0049 40.543C10.473 40.543 10.9225 40.3598 11.2574 40.0328V40.029Z" fill="#E4E4E4"/>
</svg>
