<svg width="31" height="30" viewBox="0 0 31 30" fill="none" xmlns="http://www.w3.org/2000/svg">
<path d="M9.98672 5.62875L19.1221 15L9.98672 24.3713C9.82317 24.5387 9.73161 24.7634 9.73161 24.9975C9.73161 25.2316 9.82317 25.4563 9.98672 25.6237C10.0662 25.7048 10.161 25.7692 10.2656 25.8132C10.3703 25.8572 10.4826 25.8798 10.5961 25.8798C10.7096 25.8798 10.822 25.8572 10.9266 25.8132C11.0313 25.7692 11.1261 25.7048 11.2055 25.6237L20.9259 15.6544C21.0965 15.4793 21.1921 15.2445 21.1921 15C21.1921 14.7555 21.0965 14.5207 20.9259 14.3456L11.2074 4.37625C11.1279 4.29461 11.0328 4.22972 10.9279 4.18541C10.8229 4.1411 10.7101 4.11827 10.5961 4.11827C10.4822 4.11827 10.3694 4.1411 10.2644 4.18541C10.1594 4.22972 10.0643 4.29461 9.98484 4.37625C9.8213 4.54369 9.72974 4.76845 9.72974 5.0025C9.72974 5.23655 9.8213 5.46132 9.98484 5.62875H9.98672Z" fill="#E4E4E4"/>
</svg>
