<svg width="39" height="39" viewBox="0 0 39 39" fill="none" xmlns="http://www.w3.org/2000/svg">
<g opacity="0.7" clip-path="url(#clip0_19_252)">
<path d="M39 26.2031C39 29.9051 36.9446 32.9062 32.9062 32.9062H6.09375C2.05542 32.9062 0 29.9051 0 26.2031V12.7969C0 9.09492 2.05542 6.09375 6.09375 6.09375H32.9062C36.9446 6.09375 39 9.09492 39 12.7969V26.2031Z" fill="#128807"/>
<path d="M34.8197 19.9814L19.5914 30.682L4.36255 19.9814L19.5914 9.28076L34.8197 19.9814Z" fill="#F9CB38"/>
<path fill-rule="evenodd" clip-rule="evenodd" d="M25.5997 21.8448C24.9062 24.2013 22.7362 25.9953 20.2792 26.239C16.9965 26.5675 14.1246 24.481 13.4262 21.2556C13.2196 20.3077 13.2459 19.3239 13.503 18.3884C13.5987 18.2849 13.7309 18.2599 13.8625 18.2416C14.8227 18.1083 15.7932 18.066 16.7613 18.1154C17.7942 18.1739 18.8186 18.3171 19.8143 18.5987C20.8362 18.8881 21.8258 19.2659 22.76 19.7681C23.463 20.1416 24.1345 20.5716 24.7679 21.0538C24.9824 21.2202 25.2012 21.3835 25.4071 21.5609C25.4991 21.6401 25.5711 21.7254 25.5991 21.8448" fill="#002776"/>
<path fill-rule="evenodd" clip-rule="evenodd" d="M13.8477 17.4349C14.6344 15.6769 15.961 14.5063 17.7946 13.9566C21.4874 12.8494 25.2759 15.2899 25.8249 19.0961C25.9102 19.6841 25.9139 20.274 25.8237 20.8633C25.7305 20.898 25.661 20.8486 25.597 20.7956C24.9278 20.2487 24.2137 19.7591 23.4624 19.3319C22.8839 19.0036 22.2827 18.7169 21.6635 18.4739C21.5538 18.4306 21.4161 18.4081 21.3783 18.2612C21.4179 18.1905 21.4679 18.129 21.5276 18.0717C21.5489 18.0498 21.58 18.0284 21.5514 17.9919C21.5416 17.9803 21.5215 17.9803 21.5045 17.9821C21.4587 17.987 21.4648 18.0187 21.4667 18.0522C21.4703 18.1613 21.407 18.2314 21.3235 18.2874C21.1754 18.3209 21.0334 18.2765 20.9134 18.2125C20.5697 18.0321 20.1894 17.9706 19.8256 17.87C19.2583 17.7158 18.6757 17.6287 18.0944 17.5379C17.6304 17.4638 17.1634 17.4105 16.6947 17.3782C16.2681 17.3484 15.8336 17.3526 15.404 17.3819C14.9354 17.4148 14.4656 17.4477 13.9994 17.5038C13.9702 17.508 13.9403 17.5038 13.9134 17.4916C13.8865 17.4794 13.8637 17.4597 13.8477 17.4349Z" fill="#002776"/>
<path fill-rule="evenodd" clip-rule="evenodd" d="M21.3831 18.2233C21.3807 18.2976 21.4471 18.2879 21.4873 18.3037C23.061 18.9159 24.5243 19.7803 25.82 20.8631C25.7826 21.1974 25.7086 21.5266 25.5994 21.8448C24.8371 21.2123 24.0565 20.6096 23.193 20.1172C20.4636 18.5627 17.541 17.9466 14.4167 18.2769C14.1121 18.308 13.8074 18.3494 13.5027 18.3866C13.5813 18.0569 13.6812 17.7333 13.8452 17.4335C16.126 17.1258 18.3673 17.3007 20.5666 17.9814C20.8396 18.0661 21.0998 18.2026 21.391 18.2282L21.3831 18.2215" fill="#FEFEFE"/>
<path fill-rule="evenodd" clip-rule="evenodd" d="M24.2228 22.1508C24.0394 22.1313 24.2387 22.3562 24.0534 22.3513C23.8919 22.3489 23.8834 22.2197 23.8042 22.1478C23.8651 22.0844 23.973 22.0716 24.0071 21.9729C24.0303 22.0771 24.1284 22.099 24.2228 22.1508Z" fill="#D9DFEA"/>
<path fill-rule="evenodd" clip-rule="evenodd" d="M17.3027 23.2782C17.1303 23.2983 17.2747 23.486 17.1303 23.489C16.9846 23.4921 16.9097 23.3842 16.8804 23.2727C16.8701 23.241 17.0102 23.1703 17.0791 23.1179C17.0876 23.2282 17.2022 23.2233 17.3027 23.2782Z" fill="#E9ECF3"/>
<path fill-rule="evenodd" clip-rule="evenodd" d="M19.5855 22.9387C19.346 23.0935 19.5392 22.7437 19.3984 22.7778C19.4441 22.7047 19.5733 22.7217 19.5819 22.6096C19.6428 22.673 19.6946 22.7461 19.7915 22.7595C19.6532 22.7406 19.8037 23.0478 19.5855 22.9387Z" fill="#EDEFF5"/>
<path fill-rule="evenodd" clip-rule="evenodd" d="M14.6372 18.8327C14.5799 18.9418 14.5367 19.0637 14.363 18.9905C14.274 18.9534 14.3691 18.8315 14.2625 18.8199L14.4599 18.6462C14.4733 18.6749 14.4891 18.7023 14.5025 18.7309C14.5184 18.8035 14.6628 18.7072 14.6372 18.8327Z" fill="#F0F2F6"/>
<path fill-rule="evenodd" clip-rule="evenodd" d="M15.1899 21.4803C15.0991 21.509 15.1643 21.7479 14.9693 21.6437C14.9498 21.6339 14.8645 21.6808 14.8803 21.6534C14.9315 21.5535 14.817 21.5047 14.8346 21.4249C14.9413 21.4712 14.9352 21.2762 15.0443 21.3286C15.0522 21.3347 15.0522 21.3591 15.0577 21.3749C15.0692 21.4505 15.2167 21.356 15.1899 21.4803Z" fill="#ECEFF4"/>
<path fill-rule="evenodd" clip-rule="evenodd" d="M14.2314 22.1862C14.0444 22.2514 14.1839 22.0253 14.0767 22.0271C14.1266 21.9851 14.1827 21.9065 14.2327 21.9095C14.2924 21.9126 14.3472 21.9863 14.4021 22.0283C14.3204 22.0558 14.4063 22.277 14.2314 22.1862Z" fill="#D9DFEA"/>
<path fill-rule="evenodd" clip-rule="evenodd" d="M21.4622 24.3426C21.2642 24.4327 21.4567 24.1664 21.3245 24.2012C21.3111 24.0994 21.4762 24.161 21.4555 24.0537L21.6341 24.1969C21.5616 24.2298 21.6341 24.437 21.4622 24.3426Z" fill="#D8DEEA"/>
<path fill-rule="evenodd" clip-rule="evenodd" d="M22.7296 24.1957C22.5657 24.264 22.6662 24.0434 22.5779 24.0215C22.6376 23.9831 22.7004 23.9422 22.7589 23.9026C22.7637 23.9928 22.8874 23.9599 22.9009 24.0397C22.8088 24.0452 22.9045 24.2439 22.7296 24.1957ZM23.8691 23.3755C23.6827 23.47 23.8204 23.222 23.7138 23.2323C23.7351 23.1531 23.8576 23.183 23.8649 23.0916L24.0398 23.2226C23.9331 23.2195 24.0641 23.4809 23.8691 23.3755Z" fill="#DCE1EC"/>
<path fill-rule="evenodd" clip-rule="evenodd" d="M16.3209 22.2379C16.1259 22.3482 16.2533 22.1014 16.1631 22.0966C16.1722 22.0058 16.3099 22.0448 16.316 21.9485C16.3343 22.0375 16.4525 22.0119 16.4781 22.0917C16.3617 22.0746 16.5275 22.3543 16.3209 22.2379Z" fill="#D4DAE7"/>
<path fill-rule="evenodd" clip-rule="evenodd" d="M17.1113 20.3866C17.001 20.3793 17.1424 20.2056 17.0071 20.2166C17.0302 20.1191 17.1344 20.1392 17.1917 20.0886C17.221 20.1502 17.3038 20.1642 17.3081 20.2525C17.3179 20.414 17.1747 20.3305 17.1113 20.3866Z" fill="#F2F4F7"/>
<path fill-rule="evenodd" clip-rule="evenodd" d="M20.3229 21.6736C20.1541 21.7705 20.243 21.5542 20.165 21.5304C20.2181 21.4866 20.2692 21.4421 20.3229 21.397C20.3265 21.4872 20.499 21.4671 20.4502 21.5365C20.421 21.578 20.5154 21.7675 20.3229 21.6736Z" fill="#E6E9F1"/>
<path fill-rule="evenodd" clip-rule="evenodd" d="M19.5668 21.1305C19.3743 21.15 19.5729 20.9751 19.448 20.9794C19.4967 20.9337 19.5437 20.8557 19.5985 20.8508C19.646 20.8459 19.7009 20.9233 19.7527 20.966C19.685 21.0312 19.6954 21.1994 19.5668 21.1305Z" fill="#EAEDF3"/>
<path fill-rule="evenodd" clip-rule="evenodd" d="M24.2421 22.553C24.2817 22.6578 24.3597 22.6718 24.4207 22.709C24.3585 22.7791 24.3341 22.8863 24.205 22.8863C24.0727 22.8875 24.1623 22.787 24.1324 22.7401C24.0587 22.6231 24.3311 22.7218 24.2421 22.553Z" fill="#E4E8F0"/>
<path fill-rule="evenodd" clip-rule="evenodd" d="M22.8626 24.6762C22.8163 24.745 22.848 24.8108 22.7249 24.8133C22.5841 24.8157 22.6292 24.7127 22.6231 24.681C22.6115 24.6286 22.692 24.5787 22.7383 24.589C22.7785 24.5963 22.8565 24.6189 22.8626 24.6762Z" fill="#CED5E4"/>
<path fill-rule="evenodd" clip-rule="evenodd" d="M16.2788 22.7236C16.1782 22.7352 16.2617 22.8668 16.1344 22.8625C16.018 22.8589 16.035 22.7803 16.0222 22.7327C16.0021 22.6663 16.1002 22.6681 16.1222 22.6182C16.1685 22.6505 16.2154 22.6828 16.2788 22.7236Z" fill="#DAE0EB"/>
<path fill-rule="evenodd" clip-rule="evenodd" d="M22.5896 23.4195C22.6329 23.3872 22.6761 23.3574 22.7218 23.3269C22.7255 23.3945 22.8711 23.3555 22.8224 23.4421C22.8023 23.4768 22.8516 23.5719 22.7255 23.5633C22.6121 23.5554 22.639 23.4762 22.5896 23.4195Z" fill="#D8DEE9"/>
<path fill-rule="evenodd" clip-rule="evenodd" d="M22.1265 23.6284C22.1046 23.7484 22.0363 23.7679 21.9614 23.782C21.834 23.8033 21.9297 23.7076 21.909 23.6711C21.8554 23.5796 21.9906 23.5973 22.0065 23.5376C22.0418 23.5839 22.1229 23.5827 22.1265 23.6284Z" fill="#CBD2E3"/>
<path fill-rule="evenodd" clip-rule="evenodd" d="M21.4134 19.6767C21.3707 19.6968 21.4274 19.7985 21.336 19.7693C21.2665 19.7455 21.1812 19.7126 21.1873 19.6273C21.1898 19.5944 21.2726 19.567 21.3189 19.5383C21.3269 19.5999 21.4585 19.5798 21.4134 19.6767Z" fill="#D1D8E6"/>
<path fill-rule="evenodd" clip-rule="evenodd" d="M24.8618 22.3495C24.7473 22.3946 24.7991 22.3001 24.7789 22.2727C24.7022 22.1685 24.8539 22.1837 24.8618 22.1216C24.9087 22.1527 25.0002 22.188 24.9965 22.2148C24.9938 22.2497 24.9788 22.2824 24.9541 22.3071C24.9294 22.3318 24.8967 22.3468 24.8618 22.3495Z" fill="#DADFEA"/>
<path fill-rule="evenodd" clip-rule="evenodd" d="M18.97 21.4194C18.97 21.4901 19.1126 21.4621 19.0645 21.5504C19.045 21.5864 19.0864 21.6827 18.9877 21.6626C18.9127 21.6473 18.8372 21.6035 18.8347 21.5291C18.8347 21.4944 18.9212 21.4572 18.97 21.4194Z" fill="#CAD2E2"/>
<path fill-rule="evenodd" clip-rule="evenodd" d="M20.92 23.6243C20.8639 23.5981 20.8615 23.5244 20.8651 23.489C20.8712 23.4421 20.934 23.3787 20.9876 23.4043C21.0205 23.4202 21.1137 23.411 21.0912 23.4963C21.0705 23.578 20.9888 23.5896 20.92 23.6243Z" fill="#D0D7E5"/>
<path fill-rule="evenodd" clip-rule="evenodd" d="M23.2781 23.517C23.2805 23.5164 23.3232 23.4573 23.3713 23.4561C23.406 23.4549 23.4414 23.5268 23.4786 23.567C23.4286 23.581 23.4712 23.673 23.3725 23.6718C23.2836 23.67 23.2836 23.6297 23.2781 23.517Z" fill="#EFF2F6"/>
<path fill-rule="evenodd" clip-rule="evenodd" d="M19.3576 21.974C19.3411 22.0398 19.3411 22.0806 19.2826 22.0794C19.2229 22.0782 19.1936 22.0562 19.1949 21.9953C19.1949 21.9472 19.2265 21.9136 19.2625 21.9167C19.3039 21.9197 19.363 21.9313 19.3576 21.974Z" fill="#CCD4E3"/>
<path fill-rule="evenodd" clip-rule="evenodd" d="M15.6207 21.0259C15.65 21.0576 15.6835 21.0826 15.6963 21.1148C15.7072 21.1417 15.6902 21.1825 15.6524 21.1868C15.6104 21.1904 15.5653 21.1892 15.5519 21.1368C15.5397 21.0856 15.5842 21.0673 15.6207 21.0259Z" fill="#E0E5EE"/>
<path fill-rule="evenodd" clip-rule="evenodd" d="M15.1901 21.4803C15.1736 21.4102 15.0652 21.4547 15.0579 21.3743C15.081 21.4352 15.262 21.2993 15.1901 21.4803Z" fill="#7085B1"/>
<path fill-rule="evenodd" clip-rule="evenodd" d="M14.6374 18.8327C14.624 18.7578 14.5088 18.8169 14.5027 18.731C14.535 18.7821 14.6983 18.6609 14.6374 18.8327Z" fill="#5C75A7"/>
<path fill-rule="evenodd" clip-rule="evenodd" d="M21.3951 18.23C21.4067 18.1837 21.4439 18.1081 21.4293 18.0941C21.2306 17.9174 21.4957 17.8875 21.5353 17.8516C21.6078 17.7815 21.5962 18.077 21.7876 17.8899C21.6846 18.1185 21.5469 18.1843 21.3884 18.2233L21.3951 18.23Z" fill="#E7EAF2"/>
<path fill-rule="evenodd" clip-rule="evenodd" d="M15.5214 18.0405C15.3276 18.0217 15.5 17.7694 15.458 17.6231C15.4056 17.4342 15.5433 17.4367 15.6774 17.436C15.8852 17.4348 16.0028 17.5226 16.0028 17.742C16.0022 17.9577 15.9022 18.043 15.5214 18.0405Z" fill="#15A24A"/>
<path fill-rule="evenodd" clip-rule="evenodd" d="M22.9251 19.258C22.8825 19.3884 22.7246 19.47 22.6978 19.6309C22.6954 19.6522 22.6345 19.648 22.6229 19.5858C22.5741 19.2945 22.5717 19.2952 22.3566 19.4512C22.3395 19.4639 22.3097 19.4755 22.2932 19.47C22.2615 19.456 22.2487 19.4243 22.2676 19.3884C22.3389 19.2494 22.4059 19.1069 22.4858 18.9722C22.5394 18.8832 22.6046 18.9576 22.657 18.9832C22.7722 19.0398 22.9142 19.0721 22.9251 19.258Z" fill="#13A248"/>
<path fill-rule="evenodd" clip-rule="evenodd" d="M23.4708 19.7323C23.3586 19.7774 23.3044 19.6927 23.2325 19.6623C23.1837 19.6415 23.138 19.622 23.1051 19.6763C23.0692 19.7336 23.1051 19.7665 23.1545 19.7921C23.1923 19.8109 23.2325 19.8256 23.2605 19.8554C23.3099 19.9072 23.4647 19.8932 23.4019 20.0035C23.3525 20.0913 23.2697 19.9889 23.2148 19.9566C23.1204 19.8987 22.9333 19.867 22.9534 19.7665C22.9845 19.605 23.0765 19.4295 23.199 19.3186C23.2971 19.2296 23.4056 19.3978 23.5159 19.4398C23.5634 19.4575 23.6444 19.4733 23.6304 19.5483C23.617 19.6257 23.5597 19.5806 23.5159 19.5702C23.4129 19.5465 23.3129 19.3722 23.2319 19.4928C23.1831 19.5648 23.3836 19.5946 23.447 19.6738C23.4567 19.6854 23.4592 19.7013 23.4708 19.7323ZM24.784 20.594C24.8022 20.7366 24.7444 20.8335 24.5951 20.8091C24.4403 20.7835 24.3227 20.6891 24.2959 20.5196C24.2934 20.5026 24.3141 20.4678 24.3312 20.463C24.341 20.4598 24.3514 20.4587 24.3617 20.46C24.3719 20.4612 24.3818 20.4647 24.3906 20.4701C24.3994 20.4756 24.4068 20.4829 24.4125 20.4916C24.4181 20.5002 24.4218 20.51 24.4232 20.5203C24.4427 20.6366 24.5037 20.6884 24.6261 20.6909C24.6499 20.5001 24.3056 20.413 24.5037 20.215C24.603 20.1156 24.7242 20.1979 24.8108 20.2777C24.8906 20.3502 24.9881 20.4301 24.8425 20.5337C24.8217 20.5227 24.7937 20.505 24.7785 20.5172C24.7474 20.5379 24.7779 20.5678 24.784 20.594Z" fill="#11A147"/>
<path fill-rule="evenodd" clip-rule="evenodd" d="M20.5751 18.7789C20.5026 18.738 20.5062 18.699 20.5178 18.6564C20.541 18.5656 20.494 18.518 20.4112 18.4925C20.3283 18.4656 20.2643 18.4693 20.2418 18.5729C20.2338 18.6192 20.2095 18.6515 20.1589 18.6344C20.1004 18.6131 20.1296 18.5656 20.1406 18.5308C20.1638 18.451 20.1845 18.3706 20.221 18.2944C20.2539 18.2182 20.2308 18.0787 20.3508 18.0878C20.4782 18.097 20.6159 18.1274 20.7128 18.2329C20.7561 18.2792 20.7737 18.359 20.7384 18.3937C20.6354 18.4998 20.6439 18.6497 20.5751 18.7789Z" fill="#0FA046"/>
<path fill-rule="evenodd" clip-rule="evenodd" d="M16.8145 18.0034C16.6177 18.0777 16.4623 18.0344 16.3105 18.0375C16.2417 18.0393 16.2356 17.9875 16.2356 17.9351C16.2405 17.8772 16.2405 17.8187 16.2405 17.7608C16.2478 17.4397 16.3617 17.3574 16.6774 17.447C16.7127 17.4568 16.7463 17.4628 16.7487 17.5025C16.7487 17.5573 16.7091 17.567 16.6603 17.5658C16.6536 17.5646 16.6457 17.5628 16.6372 17.564C16.5427 17.5872 16.3733 17.4805 16.3703 17.6219C16.3666 17.7304 16.5513 17.6536 16.6457 17.6901C16.6591 17.6956 16.6737 17.7078 16.6945 17.723C16.6347 17.8309 16.5354 17.7706 16.4586 17.7834C16.4129 17.7907 16.3532 17.7706 16.3465 17.8449C16.338 17.9327 16.3989 17.9284 16.4586 17.9345C16.5604 17.9467 16.6707 17.9083 16.8145 18.0034Z" fill="#0B9F43"/>
<path fill-rule="evenodd" clip-rule="evenodd" d="M15.1968 18.0498C15.0907 18.0266 15.1054 17.9657 15.0871 17.923C15.0554 17.8444 14.9926 17.8444 14.9238 17.8499C14.8451 17.8572 14.8025 17.8877 14.8092 17.9748C14.8141 18.0175 14.8311 18.0863 14.7519 18.0766C14.6837 18.068 14.7032 18.0016 14.6995 17.9565C14.6934 17.8828 14.6861 17.8072 14.6934 17.7341C14.7032 17.6525 14.6252 17.5275 14.7428 17.4983C14.864 17.4666 15.0042 17.444 15.1303 17.5044C15.1852 17.5306 15.2284 17.5946 15.2083 17.6464C15.162 17.7768 15.1986 17.909 15.1968 18.0498Z" fill="#079D3F"/>
<path fill-rule="evenodd" clip-rule="evenodd" d="M13.9104 17.8424C13.9299 17.6772 14.0024 17.5432 14.1834 17.5493C14.3571 17.5548 14.4497 17.6754 14.4497 17.8491C14.4497 18.0215 14.3693 18.1404 14.1858 18.1391C13.9994 18.1379 13.936 18.0026 13.9104 17.8424Z" fill="#15A24A"/>
<path fill-rule="evenodd" clip-rule="evenodd" d="M25.511 20.9381C25.4939 21.102 25.4129 21.2257 25.2258 21.2421C25.0533 21.2562 24.9619 21.1574 24.9485 20.9953C24.9333 20.8314 25.0942 20.6748 25.2581 20.676C25.4019 20.6773 25.5073 20.7815 25.511 20.9381Z" fill="#11A147"/>
<path fill-rule="evenodd" clip-rule="evenodd" d="M22.0899 19.0308C22.2276 19.1417 22.0607 19.2148 22.0546 19.3081C21.94 19.255 21.7968 19.2764 21.7042 19.1758C21.6055 19.0686 21.6237 18.9473 21.6883 18.8291C21.7596 18.7042 21.8693 18.6505 22.004 18.6981C22.1271 18.7419 22.2191 18.8248 22.1594 18.9808C22.0649 18.9979 21.9875 18.8736 21.8547 18.9571C21.9431 18.9979 22.0491 18.9412 22.0899 19.0308Z" fill="#0C9F43"/>
<path fill-rule="evenodd" clip-rule="evenodd" d="M18.7749 17.7756C18.6944 17.8701 18.6353 17.8335 18.5799 17.8348C18.5263 17.8348 18.469 17.7903 18.4026 17.8457C18.4623 17.9432 18.6067 17.8805 18.6628 17.9773C18.6548 17.9914 18.6512 18.0103 18.6408 18.02C18.5604 18.0834 18.4318 17.9298 18.3818 18.0566C18.3361 18.1656 18.4562 18.1279 18.508 18.1461C18.5665 18.1693 18.639 18.1608 18.7097 18.24C18.5458 18.3119 18.3501 18.2784 18.2825 18.1992C18.1759 18.0742 18.2508 17.8524 18.3319 17.7415C18.4275 17.6105 18.6024 17.7385 18.7749 17.7756Z" fill="#19A44D"/>
<path fill-rule="evenodd" clip-rule="evenodd" d="M19.8139 18.3057C19.6755 18.2911 19.5183 18.1936 19.4787 18.4215C19.4775 18.4288 19.4294 18.4392 19.4147 18.4294C19.3983 18.4203 19.3891 18.3862 19.3922 18.3667C19.4281 18.2222 19.4464 18.0675 19.5104 17.9377C19.5847 17.7914 19.7109 17.9151 19.8151 17.9291C19.9394 17.9456 20.0083 18.0211 19.9949 18.1522C19.9827 18.2649 19.8974 18.2954 19.8139 18.3057Z" fill="#0D9F44"/>
<path fill-rule="evenodd" clip-rule="evenodd" d="M21.4623 18.6546C21.4488 18.838 21.3587 18.9648 21.1752 18.9702C21.0113 18.9763 20.9193 18.8612 20.923 18.6978C20.9278 18.5211 21.0138 18.3932 21.2045 18.3877C21.3794 18.3816 21.447 18.4992 21.4623 18.6546Z" fill="#0FA046"/>
<path fill-rule="evenodd" clip-rule="evenodd" d="M17.3545 17.993C17.3343 18.0362 17.3179 18.0978 17.26 18.0838C17.1595 18.06 17.2045 17.9631 17.1802 17.8997C17.1058 17.8272 17.1253 17.9272 17.1022 17.9454C17.0936 17.9905 17.1144 18.0594 17.0534 18.0685C16.9785 18.0777 16.9961 18.0058 16.998 17.9631C17.0041 17.8741 17.0053 17.7809 17.0297 17.6956C17.051 17.6225 16.9736 17.4878 17.1192 17.4866C17.2478 17.486 17.2198 17.617 17.2362 17.6956C17.2533 17.7858 17.2624 17.8242 17.3362 17.7346C17.4123 17.7145 17.4282 17.7699 17.4459 17.8236C17.4556 17.9016 17.4209 17.9558 17.3545 17.993Z" fill="#0EA044"/>
<path fill-rule="evenodd" clip-rule="evenodd" d="M23.8447 20.2312C23.8898 20.2312 23.9355 20.2909 23.9794 20.2397C24.0129 20.2013 23.9831 20.1636 23.9532 20.1325C23.9313 20.1087 23.9081 20.0862 23.8874 20.0606C23.8252 19.9856 23.7381 19.9137 23.824 19.8052C23.902 19.7059 23.9928 19.7303 24.083 19.7931C24.0995 19.8247 24.094 19.8552 24.0769 19.8839C24.0105 19.9881 24.1342 20.0514 24.1317 20.1404C24.1506 20.2239 24.1628 20.308 24.0708 20.3561C23.9562 20.4171 23.8679 20.361 23.7838 20.2879C23.7747 20.2397 23.7923 20.216 23.8447 20.2312Z" fill="#10A146"/>
<path fill-rule="evenodd" clip-rule="evenodd" d="M22.0897 19.0309C22.0428 19.0638 21.9484 18.9572 21.9514 19.0376C21.9575 19.1802 21.8862 19.1674 21.8198 19.1253C21.7302 19.0699 21.7253 18.9748 21.782 18.8871C21.8368 18.8012 21.9142 18.7512 22.0081 18.8213C22.0654 18.8633 22.1086 18.9267 22.158 18.9809L22.0897 19.0309Z" fill="#ECF7F0"/>
<path fill-rule="evenodd" clip-rule="evenodd" d="M17.3947 17.8484C17.3769 17.8108 17.3573 17.774 17.3362 17.7381C17.3575 17.6839 17.377 17.629 17.4026 17.5766C17.4258 17.5273 17.466 17.4999 17.5227 17.5181C17.586 17.5395 17.5812 17.5882 17.5775 17.6394C17.5641 17.7887 17.5519 17.9374 17.5403 18.0867C17.4514 18.1434 17.4288 18.0916 17.4142 18.0148C17.4032 17.9593 17.4319 17.8996 17.3947 17.8484Z" fill="#17A34C"/>
<path fill-rule="evenodd" clip-rule="evenodd" d="M24.1337 20.1398C24.0788 20.0837 24.0203 20.0307 23.9692 19.971C23.9094 19.9003 23.9326 19.857 24.0216 19.8455C24.1501 19.8741 24.2288 19.9363 24.191 20.0837C24.1733 20.102 24.1538 20.1215 24.1337 20.1398Z" fill="#D7EFE0"/>
<path fill-rule="evenodd" clip-rule="evenodd" d="M24.1909 20.0838C24.1318 20.007 24.1159 19.8973 24.0215 19.8455L24.0849 19.7925C24.1872 19.865 24.3743 19.9064 24.1909 20.0838Z" fill="#2BAB5B"/>
<path fill-rule="evenodd" clip-rule="evenodd" d="M24.784 20.5938C24.7761 20.589 24.7657 20.5865 24.7621 20.5798C24.7133 20.4896 24.5518 20.4086 24.6067 20.3288C24.6755 20.2325 24.7474 20.3464 24.7852 20.4287C24.8023 20.4634 24.823 20.4976 24.8425 20.5335C24.8224 20.5536 24.8023 20.5737 24.784 20.5938Z" fill="#E6F5EC"/>
<path fill-rule="evenodd" clip-rule="evenodd" d="M23.8451 20.2312C23.8256 20.2501 23.8067 20.2696 23.7841 20.2885C23.7585 20.2702 23.7232 20.2574 23.7067 20.2312C23.6756 20.1721 23.5867 20.0935 23.6897 20.0472C23.7762 20.0058 23.7762 20.1161 23.8042 20.1697C23.8158 20.1922 23.8304 20.2111 23.8451 20.2312Z" fill="#29AA59"/>
<path fill-rule="evenodd" clip-rule="evenodd" d="M17.3946 17.8484C17.4836 17.8831 17.4366 17.9575 17.4379 18.0129C17.4427 18.0891 17.4695 18.1147 17.5408 18.0879C17.3921 18.2317 17.411 18.0397 17.3538 17.9971C17.369 17.9465 17.3806 17.8971 17.3946 17.8484Z" fill="#DDF1E4"/>
<path fill-rule="evenodd" clip-rule="evenodd" d="M17.0991 17.946V17.7498C17.1832 17.7766 17.1857 17.8357 17.1771 17.9003C17.1515 17.9155 17.1247 17.9301 17.0991 17.946Z" fill="#6FC690"/>
<path fill-rule="evenodd" clip-rule="evenodd" d="M15.5806 17.7451C15.5891 17.6562 15.5464 17.5404 15.6982 17.5501C15.8091 17.5568 15.8895 17.6013 15.8956 17.7281C15.9017 17.8646 15.8219 17.92 15.6957 17.9292C15.5355 17.942 15.6007 17.8158 15.5806 17.7451Z" fill="#F5FBF7"/>
<path fill-rule="evenodd" clip-rule="evenodd" d="M22.6078 19.0855C22.6712 19.1203 22.7681 19.127 22.7888 19.2208C22.7992 19.2696 22.7571 19.3019 22.7139 19.2879C22.6334 19.2635 22.5268 19.2623 22.5158 19.1489C22.5128 19.116 22.5481 19.0746 22.6078 19.0855Z" fill="#EFF8F3"/>
<path fill-rule="evenodd" clip-rule="evenodd" d="M20.6316 18.3362C20.6151 18.3995 20.5707 18.4215 20.5195 18.4026C20.4506 18.3776 20.3397 18.405 20.3385 18.2844C20.336 18.2216 20.3787 18.2027 20.436 18.2216C20.5115 18.246 20.6029 18.2429 20.6316 18.3362Z" fill="#DEF2E5"/>
<path fill-rule="evenodd" clip-rule="evenodd" d="M14.9388 17.5859C14.9986 17.5932 15.093 17.5616 15.0869 17.6633C15.0808 17.7523 14.9906 17.7383 14.926 17.7395C14.8743 17.7413 14.7999 17.7681 14.795 17.6749C14.7914 17.564 14.8779 17.5987 14.9388 17.5859Z" fill="#F3FAF5"/>
<path fill-rule="evenodd" clip-rule="evenodd" d="M14.1682 17.6707C14.2785 17.678 14.3333 17.7438 14.3376 17.8474C14.3437 17.94 14.298 18.0192 14.2029 18.0277C14.0932 18.0381 14.0438 17.9546 14.0378 17.8529C14.0317 17.759 14.0682 17.6908 14.1682 17.6707Z" fill="#F3FAF6"/>
<path fill-rule="evenodd" clip-rule="evenodd" d="M25.3895 20.9595C25.3736 21.0606 25.3127 21.1319 25.1951 21.1319C25.1006 21.1307 25.0653 21.0619 25.0751 20.9784C25.0842 20.865 25.1518 20.7919 25.267 20.7937C25.3578 20.7962 25.3931 20.8614 25.3895 20.9595Z" fill="#F9FCFA"/>
<path fill-rule="evenodd" clip-rule="evenodd" d="M19.6705 18.0058C19.7321 18.0436 19.8558 18.0046 19.8734 18.1265C19.8789 18.1728 19.8277 18.1966 19.7869 18.1874C19.7071 18.1697 19.5956 18.1984 19.5858 18.0698C19.584 18.0302 19.6017 17.9875 19.6705 18.0058Z" fill="#E7F5EC"/>
<path fill-rule="evenodd" clip-rule="evenodd" d="M21.3403 18.6694C21.3287 18.7748 21.2769 18.8486 21.1702 18.8486C21.0654 18.8498 21.0283 18.7767 21.0331 18.6804C21.0417 18.5743 21.102 18.5037 21.205 18.4994C21.3074 18.4957 21.3403 18.5774 21.3403 18.6694Z" fill="#F5FBF7"/>
</g>
<defs>
<clipPath id="clip0_19_252">
<rect width="39" height="39" fill="white"/>
</clipPath>
</defs>
</svg>
