<svg width="40" height="40" viewBox="0 0 40 40" fill="none" xmlns="http://www.w3.org/2000/svg">
<path d="M21.5667 20.0001L30.7778 10.7889C30.9598 10.5764 31.0549 10.303 31.0441 10.0233C31.0333 9.74369 30.9174 9.47843 30.7195 9.28054C30.5217 9.08266 30.2564 8.96673 29.9767 8.95593C29.6971 8.94513 29.4237 9.04025 29.2111 9.22228L20 18.4334L10.7889 9.21117C10.5797 9.00194 10.2959 8.8844 10 8.8844C9.70413 8.8844 9.42036 9.00194 9.21114 9.21117C9.00191 9.42039 8.88437 9.70417 8.88437 10.0001C8.88437 10.2959 9.00191 10.5797 9.21114 10.7889L18.4334 20.0001L9.21114 29.2112C9.09482 29.3108 9.00036 29.4334 8.93366 29.5712C8.86697 29.7091 8.82949 29.8592 8.82358 30.0122C8.81767 30.1652 8.84346 30.3178 8.89932 30.4604C8.95518 30.603 9.03991 30.7325 9.14819 30.8408C9.25647 30.9491 9.38597 31.0338 9.52855 31.0897C9.67114 31.1455 9.82373 31.1713 9.97675 31.1654C10.1298 31.1595 10.2799 31.122 10.4178 31.0553C10.5556 30.9886 10.6782 30.8941 10.7778 30.7778L20 21.5667L29.2111 30.7778C29.4237 30.9599 29.6971 31.055 29.9767 31.0442C30.2564 31.0334 30.5217 30.9175 30.7195 30.7196C30.9174 30.5217 31.0333 30.2564 31.0441 29.9768C31.0549 29.6971 30.9598 29.4237 30.7778 29.2112L21.5667 20.0001Z" fill="#E4E4E4"/>
</svg>
