<svg width="76" height="76" viewBox="0 0 76 76" fill="none" xmlns="http://www.w3.org/2000/svg">
<path d="M67.5555 12.6667H8.44439C7.32459 12.6667 6.25065 13.1115 5.45883 13.9033C4.66701 14.6952 4.22217 15.7691 4.22217 16.8889V59.1111C4.22217 60.2309 4.66701 61.3049 5.45883 62.0967C6.25065 62.8885 7.32459 63.3333 8.44439 63.3333H67.5555C68.6753 63.3333 69.7493 62.8885 70.5411 62.0967C71.3329 61.3049 71.7777 60.2309 71.7777 59.1111V16.8889C71.7777 15.7691 71.3329 14.6952 70.5411 13.9033C69.7493 13.1115 68.6753 12.6667 67.5555 12.6667ZM64.3044 59.1111H11.9488L26.7266 43.8267L23.6866 40.8922L8.44439 56.6622V20.0978L34.6855 46.2122C35.4766 46.9986 36.5467 47.44 37.6622 47.44C38.7776 47.44 39.8478 46.9986 40.6388 46.2122L67.5555 19.4434V56.3878L52.0177 40.85L49.0411 43.8267L64.3044 59.1111ZM11.2099 16.8889H64.1355L37.6622 43.2145L11.2099 16.8889Z" fill="#E4E4E4"/>
</svg>
