<svg width="39" height="39" viewBox="0 0 39 39" fill="none" xmlns="http://www.w3.org/2000/svg">
<g opacity="0.15">
<path d="M15.8438 10.8225V12.8822H38.9787C38.9464 12.218 38.8769 11.3783 38.6283 10.8225" fill="#EC1C24"/>
<path d="M37.5375 8.7627H15.8438V10.8224H38.6283C38.3809 10.054 38.0128 9.35318 37.5375 8.7627Z" fill="#E6E7E8"/>
<path d="M32.9062 6.70312H15.8438V8.76281H37.5375C36.5205 7.48922 34.8465 6.70312 32.9062 6.70312Z" fill="#EC1C24"/>
<path d="M38.9787 12.8821H15.8438V14.9418H39V13.5688C39 13.4464 38.9921 13.3269 38.9884 13.2069C38.986 13.174 38.9823 13.0893 38.9787 12.8821Z" fill="#E6E7E8"/>
<path d="M15.8438 17.0016H39V14.9419H15.8438V17.0016Z" fill="#EC1C24"/>
<path d="M15.8438 19.0612H39V17.0015H15.8438V19.0612Z" fill="#E6E7E8"/>
<path d="M15.8438 19.0613H39V21.121H15.8438V19.0613Z" fill="#EC1C24"/>
<path d="M0 21.1208V23.1805H39V21.1208H15.8438H0Z" fill="#E6E7E8"/>
<path d="M0 23.1807H39V25.2403H0V23.1807Z" fill="#EC1C24"/>
<path d="M0.00304687 26.5071C0.00304687 26.5071 -0.0024375 27.0062 0.0121875 27.2999H38.9878C39.0049 26.9989 38.997 26.5071 38.997 26.5071L39 25.2402H0L0.00304687 26.5071Z" fill="#E6E7E8"/>
<path d="M6.09383 33.5157H32.9063C34.8521 33.5157 36.4693 32.8088 37.5741 31.4194H1.41992C2.56067 32.8393 4.20842 33.5157 6.09078 33.5157" fill="#EC1C24"/>
<path d="M1.42287 31.4193H37.5771C38.0591 30.8069 38.419 30.1077 38.6374 29.3596H0.368652C0.591133 30.1055 0.949578 30.8038 1.42592 31.4193" fill="#E6E7E8"/>
<path d="M0.365645 29.3597H38.6344C38.8339 28.6897 38.9526 27.9983 38.9878 27.3H0.012207C0.0725352 28.0045 0.128598 28.5365 0.365645 29.3597Z" fill="#EC1C24"/>
<path d="M15.8438 6.70312H6.09375C2.05542 6.70312 0 9.7043 0 13.4062V21.1209H15.8438V6.70312Z" fill="#176496"/>
<path d="M1.70495 10.3447L2.03645 10.09L2.36734 10.3447L2.23876 9.93522L2.56843 9.68477H2.16137L2.03523 9.27344L1.9097 9.68477H1.50324L1.83413 9.93522L1.70495 10.3447ZM3.89504 10.3447L4.22654 10.09L4.55743 10.3447L4.42946 9.93522L4.75853 9.68477H4.35207L4.22593 9.27344L4.1004 9.68477H3.69273L4.02362 9.93522L3.89504 10.3447ZM6.31121 10.3447L6.6421 10.09L6.9736 10.3447L6.84503 9.93522L7.17409 9.68477H6.77007L6.6421 9.27344L6.51596 9.68477H6.11195L6.43918 9.93522L6.31121 10.3447ZM8.70971 10.3447L9.0406 10.09L9.3721 10.3447L9.24413 9.93522L9.5732 9.68477H9.16492L9.0406 9.27344L8.91507 9.68477H8.50801L8.83829 9.93522L8.70971 10.3447ZM11.1167 10.3447L11.4482 10.09L11.7791 10.3447L11.6512 9.93522L11.9808 9.68477H11.5732L11.4476 9.27344L11.3221 9.68477H10.9157L11.2447 9.93522L11.1167 10.3447ZM2.87068 11.4142L3.20157 11.1601L3.53246 11.4142L3.4051 11.0053L3.73417 10.7548H3.3271L3.20096 10.3441L3.07726 10.7548H2.66898L2.99865 11.0053L2.87068 11.4142ZM5.06138 11.4142L5.39228 11.1601L5.72317 11.4142L5.5952 11.0053L5.92426 10.7548H5.51476L5.39228 10.3441L5.26613 10.7548H4.85968L5.18935 11.0053L5.06138 11.4142ZM7.47756 11.4142L7.80784 11.1601L8.13873 11.4142L8.01076 11.0053L8.34043 10.7548H7.93398L7.80784 10.3441L7.6817 10.7548H7.27463L7.60431 11.0053L7.47756 11.4142ZM9.87484 11.4142L10.2063 11.1601L10.5378 11.4142L10.408 11.0053L10.7383 10.7548H10.3319L10.2057 10.3441L10.0808 10.7548H9.67374L10.0034 11.0053L9.87484 11.4142ZM12.2849 11.4142L12.6134 11.1601L12.9443 11.4142L12.8151 11.0053L13.1454 10.7548H12.7395L12.6128 10.3441L12.4878 10.7548H12.0808L12.4104 11.0053L12.2849 11.4142ZM13.642 10.3447L13.9729 10.09L14.3044 10.3447L14.1758 9.93522L14.5049 9.68477H14.1009L13.9723 9.27344L13.8467 9.68477H13.4366L13.77 9.93522L13.642 10.3447ZM1.67265 18.9028L2.00415 18.6511L2.33504 18.9028L2.20707 18.4969L2.53613 18.2459L2.12968 18.2471L2.00293 17.8364L1.87862 18.2471L1.47095 18.2459L1.80062 18.4969L1.67265 18.9028ZM3.86335 18.9028L4.19424 18.6511L4.52574 18.9028L4.39717 18.4969L4.72623 18.2459L4.32038 18.2471L4.19363 17.8364L4.06871 18.2471L3.66226 18.2459L3.99132 18.4969L3.86335 18.9028ZM6.27953 18.9028L6.61042 18.6511L6.94192 18.9028L6.81334 18.4969L7.1424 18.2459L6.73351 18.2471L6.60981 17.8364L6.48427 18.2471L6.07782 18.2459L6.40749 18.4969L6.27953 18.9028ZM8.67803 18.9028L9.00892 18.6511L9.33981 18.9028L9.21367 18.4969L9.5409 18.2459L9.13384 18.2471L9.00831 17.8364L8.88278 18.2471L8.47632 18.2459L8.80538 18.4969L8.67803 18.9028ZM11.0844 18.9028L11.4159 18.6511L11.7474 18.9028L11.6207 18.4969L11.9479 18.2459L11.5415 18.2471L11.4153 17.8364L11.2904 18.2471L10.8834 18.2459L11.2124 18.4969L11.0844 18.9028ZM13.6097 18.9028L13.9406 18.6511L14.2721 18.9028L14.1435 18.4969L14.4732 18.2459L14.0643 18.2471L13.94 17.8364L13.8144 18.2471L13.4062 18.2459L13.7377 18.4969L13.6097 18.9028ZM1.70495 12.4848L2.03645 12.2301L2.36734 12.4848L2.23876 12.0753L2.56843 11.8249L2.16137 11.8261L2.03523 11.4142L1.9097 11.8261L1.50324 11.8249L1.83413 12.0753L1.70495 12.4848ZM3.89504 12.4848L4.22654 12.2301L4.55743 12.4848L4.42946 12.0753L4.75853 11.8249L4.35207 11.8261L4.22593 11.4142L4.1004 11.8261L3.69273 11.8249L4.02362 12.0753L3.89504 12.4848ZM6.31121 12.4848L6.6421 12.2301L6.9736 12.4848L6.84503 12.0753L7.17409 11.8249L6.77007 11.8261L6.6421 11.4142L6.51596 11.8261L6.11195 11.8249L6.43918 12.0753L6.31121 12.4848ZM8.70971 12.4848L9.0406 12.2301L9.3721 12.4848L9.24413 12.0753L9.5732 11.8249L9.16492 11.8261L9.0406 11.4142L8.91507 11.8261L8.50801 11.8249L8.83829 12.0753L8.70971 12.4848ZM11.1167 12.4848L11.4482 12.2301L11.7791 12.4848L11.6512 12.0753L11.9808 11.8249L11.5732 11.8261L11.4476 11.4142L11.3221 11.8261L10.9157 11.8249L11.2447 12.0753L11.1167 12.4848ZM2.87068 13.5549L3.20157 13.3008L3.53246 13.5549L3.4051 13.146L3.73417 12.8943H3.3271L3.20096 12.4848L3.07726 12.8943H2.66898L2.99865 13.146L2.87068 13.5549ZM5.06138 13.5549L5.39228 13.3008L5.72317 13.5549L5.5952 13.146L5.92426 12.8943H5.51476L5.39228 12.4848L5.26613 12.8943H4.85968L5.18935 13.146L5.06138 13.5549ZM7.47756 13.5549L7.80784 13.3008L8.13873 13.5549L8.01076 13.146L8.34043 12.8943H7.93398L7.80784 12.4848L7.6817 12.8943H7.27463L7.60431 13.146L7.47756 13.5549ZM9.87484 13.5549L10.2063 13.3008L10.5378 13.5549L10.408 13.146L10.7383 12.8943H10.3319L10.2057 12.4848L10.0808 12.8943H9.67374L10.0034 13.146L9.87484 13.5549ZM12.2849 13.5549L12.6134 13.3008L12.9443 13.5549L12.8151 13.146L13.1454 12.8943H12.7395L12.6128 12.4848L12.4878 12.8943H12.0808L12.4104 13.146L12.2849 13.5549ZM13.642 12.4848L13.9729 12.2301L14.3044 12.4848L14.1758 12.0753L14.5049 11.8249L14.1009 11.8261L13.9723 11.4142L13.8467 11.8261L13.4366 11.8249L13.77 12.0753L13.642 12.4848ZM1.67265 14.625L2.00415 14.3709L2.33504 14.625L2.20646 14.2167L2.53613 13.9656L2.12907 13.9668L2.00293 13.5549L1.87862 13.9668L1.47095 13.9656L1.80062 14.2167L1.67265 14.625ZM3.86335 14.625L4.19424 14.3709L4.52574 14.625L4.39717 14.2167L4.72623 13.9656L4.32038 13.9668L4.19363 13.5549L4.06871 13.9668L3.66226 13.9656L3.99071 14.2167L3.86335 14.625ZM6.27953 14.625L6.61042 14.3709L6.94131 14.625L6.81334 14.2167L7.1424 13.9656L6.73351 13.9668L6.60981 13.5549L6.48427 13.9668L6.07782 13.9656L6.40749 14.2167L6.27953 14.625ZM8.67803 14.625L9.00831 14.3709L9.33981 14.625L9.21367 14.2167L9.5409 13.9656L9.13384 13.9668L9.00831 13.5549L8.88278 13.9668L8.47632 13.9656L8.80538 14.2167L8.67803 14.625ZM11.0844 14.625L11.4159 14.3709L11.7468 14.625L11.6207 14.2167L11.9479 13.9656L11.5409 13.9668L11.4153 13.5549L11.2904 13.9668L10.8834 13.9656L11.2124 14.2167L11.0844 14.625ZM2.83838 15.695L3.16928 15.4415L3.50017 15.695L3.37281 15.2892L3.70126 15.0369H3.2942L3.16867 14.625L3.04374 15.0369H2.63668L2.96635 15.2892L2.83838 15.695ZM5.02909 15.695L5.35998 15.4415L5.69087 15.695L5.5629 15.2892L5.89196 15.0369H5.48429L5.35937 14.625L5.23384 15.0369H4.82678L5.15706 15.2892L5.02909 15.695ZM7.44587 15.695L7.77554 15.4415L8.10704 15.695L7.97663 15.2892L8.30813 15.0369H7.90168L7.77554 14.625L7.65001 15.0369H7.24295L7.57262 15.2892L7.44587 15.695ZM9.84132 15.695L10.174 15.4415L10.5055 15.695L10.3776 15.2892L10.706 15.0369H10.2996L10.1734 14.625L10.0485 15.0369H9.64145L9.97112 15.2892L9.84132 15.695ZM12.2484 15.695L12.5811 15.4415L12.9126 15.695L12.784 15.2892L13.1143 15.0369H12.7078L12.5811 14.625L12.4555 15.0369H12.0485L12.3782 15.2892L12.2484 15.695ZM13.6097 14.625L13.9406 14.3709L14.2715 14.625L14.1435 14.2167L14.4732 13.9656L14.0643 13.9668L13.94 13.5549L13.8144 13.9668L13.4062 13.9656L13.7377 14.2167L13.6097 14.625ZM1.67265 16.7657L2.00415 16.514L2.33504 16.7657L2.20646 16.3568L2.53613 16.1057L2.12907 16.107L2.00293 15.695L1.87862 16.107L1.47095 16.1057L1.80062 16.3568L1.67265 16.7657ZM3.86335 16.7657L4.19424 16.514L4.52574 16.7657L4.39717 16.3568L4.72623 16.1057L4.32038 16.107L4.19363 15.695L4.06871 16.107L3.66226 16.1057L3.99071 16.3568L3.86335 16.7657ZM6.27953 16.7657L6.61042 16.514L6.94131 16.7657L6.81334 16.3568L7.1424 16.1057L6.73351 16.107L6.60981 15.695L6.48427 16.107L6.07782 16.1057L6.40749 16.3568L6.27953 16.7657ZM8.67803 16.7657L9.00831 16.514L9.33981 16.7657L9.21367 16.3568L9.5409 16.1057L9.13384 16.107L9.00831 15.695L8.88278 16.107L8.47632 16.1057L8.80538 16.3568L8.67803 16.7657ZM11.0844 16.7657L11.4159 16.514L11.7468 16.7657L11.6207 16.3568L11.9479 16.1057L11.5409 16.107L11.4153 15.695L11.2904 16.107L10.8834 16.1057L11.2124 16.3568L11.0844 16.7657ZM2.83838 17.8364L3.16928 17.5817L3.50017 17.8364L3.37281 17.4269L3.70126 17.1782H3.2942L3.16867 16.7657L3.04374 17.1782H2.63668L2.96635 17.4269L2.83838 17.8364ZM5.02909 17.8364L5.35998 17.5817L5.69087 17.8364L5.5629 17.4269L5.89196 17.1782H5.48429L5.35937 16.7657L5.23384 17.1782H4.82678L5.15706 17.4269L5.02909 17.8364ZM7.44587 17.8364L7.77554 17.5817L8.10704 17.8364L7.97663 17.4269L8.30813 17.1782H7.90168L7.77554 16.7657L7.65001 17.1782H7.24295L7.57262 17.4269L7.44587 17.8364ZM9.84132 17.8364L10.174 17.5817L10.5055 17.8364L10.3776 17.4269L10.706 17.1782H10.2996L10.1734 16.7657L10.0485 17.1782H9.64145L9.97112 17.4269L9.84132 17.8364ZM12.2484 17.8364L12.5811 17.5817L12.9126 17.8364L12.784 17.4269L13.1143 17.1782H12.7078L12.5811 16.7657L12.4555 17.1782H12.0485L12.3782 17.4269L12.2484 17.8364ZM13.6097 16.7657L13.9406 16.514L14.2715 16.7657L14.1435 16.3568L14.4732 16.1057L14.0643 16.107L13.94 15.695L13.8144 16.107L13.4062 16.1057L13.7377 16.3568L13.6097 16.7657Z" fill="#E4E4E4"/>
</g>
</svg>
