<svg width="39" height="39" viewBox="0 0 39 39" fill="none" xmlns="http://www.w3.org/2000/svg">
<g opacity="0.7">
<path d="M15.8438 10.8225V12.8822H38.9787C38.9464 12.218 38.8769 11.3783 38.6283 10.8225" fill="#EC1C24"/>
<path d="M37.5375 8.7627H15.8438V10.8224H38.6283C38.3809 10.054 38.0128 9.35318 37.5375 8.7627Z" fill="#E6E7E8"/>
<path d="M32.9062 6.70312H15.8438V8.76281H37.5375C36.5205 7.48922 34.8465 6.70312 32.9062 6.70312Z" fill="#EC1C24"/>
<path d="M38.9787 12.8821H15.8438V14.9418H39V13.5688C39 13.4464 38.9921 13.3269 38.9884 13.2069C38.986 13.174 38.9823 13.0893 38.9787 12.8821Z" fill="#E6E7E8"/>
<path d="M15.8438 17.0016H39V14.9419H15.8438V17.0016Z" fill="#EC1C24"/>
<path d="M15.8438 19.0612H39V17.0015H15.8438V19.0612Z" fill="#E6E7E8"/>
<path d="M15.8438 19.0613H39V21.121H15.8438V19.0613Z" fill="#EC1C24"/>
<path d="M0 21.1208V23.1805H39V21.1208H15.8438H0Z" fill="#E6E7E8"/>
<path d="M0 23.1807H39V25.2403H0V23.1807Z" fill="#EC1C24"/>
<path d="M0.00304687 26.5071C0.00304687 26.5071 -0.0024375 27.0062 0.0121875 27.2999H38.9878C39.0049 26.9989 38.997 26.5071 38.997 26.5071L39 25.2402H0L0.00304687 26.5071Z" fill="#E6E7E8"/>
<path d="M6.09383 33.5157H32.9063C34.8521 33.5157 36.4693 32.8088 37.5741 31.4194H1.41992C2.56067 32.8393 4.20842 33.5157 6.09078 33.5157" fill="#EC1C24"/>
<path d="M1.42287 31.4193H37.5771C38.0591 30.8069 38.419 30.1077 38.6374 29.3596H0.368652C0.591133 30.1055 0.949578 30.8038 1.42592 31.4193" fill="#E6E7E8"/>
<path d="M0.365645 29.3597H38.6344C38.8339 28.6897 38.9526 27.9983 38.9878 27.3H0.012207C0.0725352 28.0045 0.128598 28.5365 0.365645 29.3597Z" fill="#EC1C24"/>
<path d="M15.8438 6.70312H6.09375C2.05542 6.70312 0 9.7043 0 13.4062V21.1209H15.8438V6.70312Z" fill="#176496"/>
<path d="M1.70519 10.3447L2.03669 10.09L2.36758 10.3447L2.239 9.93522L2.56868 9.68477H2.16161L2.03547 9.27344L1.90994 9.68477H1.50349L1.83438 9.93522L1.70519 10.3447ZM3.89529 10.3447L4.22678 10.09L4.55768 10.3447L4.42971 9.93522L4.75877 9.68477H4.35232L4.22618 9.27344L4.10064 9.68477H3.69297L4.02386 9.93522L3.89529 10.3447ZM6.31146 10.3447L6.64235 10.09L6.97385 10.3447L6.84527 9.93522L7.17433 9.68477H6.77032L6.64235 9.27344L6.51621 9.68477H6.11219L6.43943 9.93522L6.31146 10.3447ZM8.70996 10.3447L9.04085 10.09L9.37235 10.3447L9.24438 9.93522L9.57344 9.68477H9.16516L9.04085 9.27344L8.91532 9.68477H8.50825L8.83854 9.93522L8.70996 10.3447ZM11.117 10.3447L11.4485 10.09L11.7794 10.3447L11.6514 9.93522L11.9811 9.68477H11.5734L11.4479 9.27344L11.3223 9.68477H10.9159L11.245 9.93522L11.117 10.3447ZM2.87093 11.4142L3.20182 11.1601L3.53271 11.4142L3.40535 11.0053L3.73441 10.7548H3.32735L3.20121 10.3441L3.0775 10.7548H2.66922L2.99889 11.0053L2.87093 11.4142ZM5.06163 11.4142L5.39252 11.1601L5.72341 11.4142L5.59544 11.0053L5.9245 10.7548H5.515L5.39252 10.3441L5.26638 10.7548H4.85993L5.1896 11.0053L5.06163 11.4142ZM7.4778 11.4142L7.80808 11.1601L8.13897 11.4142L8.011 11.0053L8.34068 10.7548H7.93422L7.80808 10.3441L7.68194 10.7548H7.27488L7.60455 11.0053L7.4778 11.4142ZM9.87508 11.4142L10.2066 11.1601L10.5381 11.4142L10.4083 11.0053L10.7386 10.7548H10.3321L10.206 10.3441L10.0811 10.7548H9.67399L10.0037 11.0053L9.87508 11.4142ZM12.2852 11.4142L12.6136 11.1601L12.9445 11.4142L12.8153 11.0053L13.1456 10.7548H12.7398L12.613 10.3441L12.4881 10.7548H12.081L12.4107 11.0053L12.2852 11.4142ZM13.6422 10.3447L13.9731 10.09L14.3046 10.3447L14.1761 9.93522L14.5051 9.68477H14.1011L13.9725 9.27344L13.847 9.68477H13.4369L13.7702 9.93522L13.6422 10.3447ZM1.67289 18.9028L2.00439 18.6511L2.33529 18.9028L2.20732 18.4969L2.53638 18.2459L2.12993 18.2471L2.00318 17.8364L1.87886 18.2471L1.47119 18.2459L1.80086 18.4969L1.67289 18.9028ZM3.8636 18.9028L4.19449 18.6511L4.52599 18.9028L4.39741 18.4969L4.72647 18.2459L4.32063 18.2471L4.19388 17.8364L4.06896 18.2471L3.6625 18.2459L3.99157 18.4969L3.8636 18.9028ZM6.27977 18.9028L6.61066 18.6511L6.94216 18.9028L6.81358 18.4969L7.14264 18.2459L6.73375 18.2471L6.61005 17.8364L6.48452 18.2471L6.07807 18.2459L6.40774 18.4969L6.27977 18.9028ZM8.67827 18.9028L9.00916 18.6511L9.34005 18.9028L9.21391 18.4969L9.54114 18.2459L9.13408 18.2471L9.00855 17.8364L8.88302 18.2471L8.47657 18.2459L8.80563 18.4969L8.67827 18.9028ZM11.0847 18.9028L11.4162 18.6511L11.7477 18.9028L11.6209 18.4969L11.9482 18.2459L11.5417 18.2471L11.4156 17.8364L11.2907 18.2471L10.8836 18.2459L11.2127 18.4969L11.0847 18.9028ZM13.6099 18.9028L13.9408 18.6511L14.2723 18.9028L14.1438 18.4969L14.4734 18.2459L14.0645 18.2471L13.9402 17.8364L13.8147 18.2471L13.4064 18.2459L13.7379 18.4969L13.6099 18.9028ZM1.70519 12.4848L2.03669 12.2301L2.36758 12.4848L2.239 12.0753L2.56868 11.8249L2.16161 11.8261L2.03547 11.4142L1.90994 11.8261L1.50349 11.8249L1.83438 12.0753L1.70519 12.4848ZM3.89529 12.4848L4.22678 12.2301L4.55768 12.4848L4.42971 12.0753L4.75877 11.8249L4.35232 11.8261L4.22618 11.4142L4.10064 11.8261L3.69297 11.8249L4.02386 12.0753L3.89529 12.4848ZM6.31146 12.4848L6.64235 12.2301L6.97385 12.4848L6.84527 12.0753L7.17433 11.8249L6.77032 11.8261L6.64235 11.4142L6.51621 11.8261L6.11219 11.8249L6.43943 12.0753L6.31146 12.4848ZM8.70996 12.4848L9.04085 12.2301L9.37235 12.4848L9.24438 12.0753L9.57344 11.8249L9.16516 11.8261L9.04085 11.4142L8.91532 11.8261L8.50825 11.8249L8.83854 12.0753L8.70996 12.4848ZM11.117 12.4848L11.4485 12.2301L11.7794 12.4848L11.6514 12.0753L11.9811 11.8249L11.5734 11.8261L11.4479 11.4142L11.3223 11.8261L10.9159 11.8249L11.245 12.0753L11.117 12.4848ZM2.87093 13.5549L3.20182 13.3008L3.53271 13.5549L3.40535 13.146L3.73441 12.8943H3.32735L3.20121 12.4848L3.0775 12.8943H2.66922L2.99889 13.146L2.87093 13.5549ZM5.06163 13.5549L5.39252 13.3008L5.72341 13.5549L5.59544 13.146L5.9245 12.8943H5.515L5.39252 12.4848L5.26638 12.8943H4.85993L5.1896 13.146L5.06163 13.5549ZM7.4778 13.5549L7.80808 13.3008L8.13897 13.5549L8.011 13.146L8.34068 12.8943H7.93422L7.80808 12.4848L7.68194 12.8943H7.27488L7.60455 13.146L7.4778 13.5549ZM9.87508 13.5549L10.2066 13.3008L10.5381 13.5549L10.4083 13.146L10.7386 12.8943H10.3321L10.206 12.4848L10.0811 12.8943H9.67399L10.0037 13.146L9.87508 13.5549ZM12.2852 13.5549L12.6136 13.3008L12.9445 13.5549L12.8153 13.146L13.1456 12.8943H12.7398L12.613 12.4848L12.4881 12.8943H12.081L12.4107 13.146L12.2852 13.5549ZM13.6422 12.4848L13.9731 12.2301L14.3046 12.4848L14.1761 12.0753L14.5051 11.8249L14.1011 11.8261L13.9725 11.4142L13.847 11.8261L13.4369 11.8249L13.7702 12.0753L13.6422 12.4848ZM1.67289 14.625L2.00439 14.3709L2.33529 14.625L2.20671 14.2167L2.53638 13.9656L2.12932 13.9668L2.00318 13.5549L1.87886 13.9668L1.47119 13.9656L1.80086 14.2167L1.67289 14.625ZM3.8636 14.625L4.19449 14.3709L4.52599 14.625L4.39741 14.2167L4.72647 13.9656L4.32063 13.9668L4.19388 13.5549L4.06896 13.9668L3.6625 13.9656L3.99096 14.2167L3.8636 14.625ZM6.27977 14.625L6.61066 14.3709L6.94155 14.625L6.81358 14.2167L7.14264 13.9656L6.73375 13.9668L6.61005 13.5549L6.48452 13.9668L6.07807 13.9656L6.40774 14.2167L6.27977 14.625ZM8.67827 14.625L9.00855 14.3709L9.34005 14.625L9.21391 14.2167L9.54114 13.9656L9.13408 13.9668L9.00855 13.5549L8.88302 13.9668L8.47657 13.9656L8.80563 14.2167L8.67827 14.625ZM11.0847 14.625L11.4162 14.3709L11.7471 14.625L11.6209 14.2167L11.9482 13.9656L11.5411 13.9668L11.4156 13.5549L11.2907 13.9668L10.8836 13.9656L11.2127 14.2167L11.0847 14.625ZM2.83863 15.695L3.16952 15.4415L3.50041 15.695L3.37305 15.2892L3.7015 15.0369H3.29444L3.16891 14.625L3.04399 15.0369H2.63693L2.9666 15.2892L2.83863 15.695ZM5.02933 15.695L5.36022 15.4415L5.69111 15.695L5.56314 15.2892L5.89221 15.0369H5.48454L5.35961 14.625L5.23408 15.0369H4.82702L5.1573 15.2892L5.02933 15.695ZM7.44611 15.695L7.77579 15.4415L8.10728 15.695L7.97688 15.2892L8.30838 15.0369H7.90193L7.77579 14.625L7.65025 15.0369H7.24319L7.57286 15.2892L7.44611 15.695ZM9.84157 15.695L10.1743 15.4415L10.5058 15.695L10.3778 15.2892L10.7063 15.0369H10.2998L10.1737 14.625L10.0488 15.0369H9.64169L9.97136 15.2892L9.84157 15.695ZM12.2486 15.695L12.5813 15.4415L12.9128 15.695L12.7842 15.2892L13.1145 15.0369H12.7081L12.5813 14.625L12.4558 15.0369H12.0487L12.3784 15.2892L12.2486 15.695ZM13.6099 14.625L13.9408 14.3709L14.2717 14.625L14.1438 14.2167L14.4734 13.9656L14.0645 13.9668L13.9402 13.5549L13.8147 13.9668L13.4064 13.9656L13.7379 14.2167L13.6099 14.625ZM1.67289 16.7657L2.00439 16.514L2.33529 16.7657L2.20671 16.3568L2.53638 16.1057L2.12932 16.107L2.00318 15.695L1.87886 16.107L1.47119 16.1057L1.80086 16.3568L1.67289 16.7657ZM3.8636 16.7657L4.19449 16.514L4.52599 16.7657L4.39741 16.3568L4.72647 16.1057L4.32063 16.107L4.19388 15.695L4.06896 16.107L3.6625 16.1057L3.99096 16.3568L3.8636 16.7657ZM6.27977 16.7657L6.61066 16.514L6.94155 16.7657L6.81358 16.3568L7.14264 16.1057L6.73375 16.107L6.61005 15.695L6.48452 16.107L6.07807 16.1057L6.40774 16.3568L6.27977 16.7657ZM8.67827 16.7657L9.00855 16.514L9.34005 16.7657L9.21391 16.3568L9.54114 16.1057L9.13408 16.107L9.00855 15.695L8.88302 16.107L8.47657 16.1057L8.80563 16.3568L8.67827 16.7657ZM11.0847 16.7657L11.4162 16.514L11.7471 16.7657L11.6209 16.3568L11.9482 16.1057L11.5411 16.107L11.4156 15.695L11.2907 16.107L10.8836 16.1057L11.2127 16.3568L11.0847 16.7657ZM2.83863 17.8364L3.16952 17.5817L3.50041 17.8364L3.37305 17.4269L3.7015 17.1782H3.29444L3.16891 16.7657L3.04399 17.1782H2.63693L2.9666 17.4269L2.83863 17.8364ZM5.02933 17.8364L5.36022 17.5817L5.69111 17.8364L5.56314 17.4269L5.89221 17.1782H5.48454L5.35961 16.7657L5.23408 17.1782H4.82702L5.1573 17.4269L5.02933 17.8364ZM7.44611 17.8364L7.77579 17.5817L8.10728 17.8364L7.97688 17.4269L8.30838 17.1782H7.90193L7.77579 16.7657L7.65025 17.1782H7.24319L7.57286 17.4269L7.44611 17.8364ZM9.84157 17.8364L10.1743 17.5817L10.5058 17.8364L10.3778 17.4269L10.7063 17.1782H10.2998L10.1737 16.7657L10.0488 17.1782H9.64169L9.97136 17.4269L9.84157 17.8364ZM12.2486 17.8364L12.5813 17.5817L12.9128 17.8364L12.7842 17.4269L13.1145 17.1782H12.7081L12.5813 16.7657L12.4558 17.1782H12.0487L12.3784 17.4269L12.2486 17.8364ZM13.6099 16.7657L13.9408 16.514L14.2717 16.7657L14.1438 16.3568L14.4734 16.1057L14.0645 16.107L13.9402 15.695L13.8147 16.107L13.4064 16.1057L13.7379 16.3568L13.6099 16.7657Z" fill="#E4E4E4"/>
</g>
</svg>
