<svg width="76" height="76" viewBox="0 0 76 76" fill="none" xmlns="http://www.w3.org/2000/svg">
<path d="M66.6109 16.6472C69.4925 20.1052 70.9302 24.1395 70.9302 28.7502C70.9302 45.4606 61.4239 50.3595 52.4907 51.8003C53.6434 53.8175 53.9315 56.1228 53.9315 58.4281V70.2398C53.9315 71.6806 53.067 72.5451 51.9144 72.5451C51.6104 72.5494 51.3088 72.4927 51.0271 72.3783C50.7455 72.264 50.4897 72.0943 50.2747 71.8794C50.0598 71.6645 49.8902 71.4086 49.7758 71.127C49.6615 70.8454 49.6048 70.5437 49.609 70.2398V58.4281C49.7608 57.2205 49.6317 55.9941 49.2319 54.8445C48.832 53.6949 48.1722 52.6531 47.3037 51.8003L48.7445 48.0541C57.6777 46.9015 66.899 44.0198 66.899 28.462C66.899 24.7158 65.4582 21.2578 62.8647 18.3762L62.2884 16.074C63.3842 13.3128 63.485 10.2564 62.5734 7.429C61.1357 7.714 58.254 8.2935 53.3584 11.7515L51.6262 12.0365C44.8203 10.3083 37.6904 10.3083 30.8845 12.0365L29.1524 11.7515C23.9717 8.58167 21.09 7.71717 19.646 7.71717C18.7815 10.5988 18.7815 13.7655 19.931 16.3622L19.3579 18.6643C16.4762 21.546 15.0354 25.2922 15.0354 28.7502C15.0354 44.0198 23.6804 47.1896 33.1867 48.3423L34.3394 52.0885C32.6104 53.8175 31.7459 56.1228 32.034 58.4281V70.528C32.0383 70.8319 31.9816 71.1336 31.8672 71.4152C31.7529 71.6968 31.5832 71.9527 31.3683 72.1676C31.1534 72.3825 30.8976 72.5521 30.6159 72.6665C30.3343 72.7808 30.0326 72.8376 29.7287 72.8333C29.4248 72.8376 29.1231 72.7808 28.8415 72.6665C28.5598 72.5521 28.304 72.3825 28.0891 72.1676C27.8742 71.9527 27.7045 71.6968 27.5902 71.4152C27.4758 71.1336 27.4191 70.8319 27.4234 70.528V63.9033C17.917 65.9205 14.1709 61.0216 11.2892 57.2786C9.84836 55.5496 8.69569 54.1088 7.25486 53.8206C6.96986 53.5325 6.10219 52.3798 6.39036 51.2271C6.67853 50.0745 7.83119 49.21 8.98703 49.7863C11.8687 50.3626 13.5945 52.668 15.3204 54.6851C17.917 58.1431 20.5105 61.3098 28.2879 59.584V58.4313C28.0029 56.126 28.576 53.8206 29.7287 51.8035C21.0837 50.0745 11.001 45.1756 11.001 28.7533C11.001 24.1427 12.4419 20.1083 15.3235 16.6503C14.459 12.6192 14.7472 8.29667 16.188 4.83867L17.6289 3.686C18.2052 3.39784 22.2395 2.53334 30.59 7.71717C37.4945 5.9884 44.7186 5.9884 51.623 7.71717C59.6949 2.24201 64.0174 3.10334 64.5937 3.39467L66.0345 4.54734C67.4754 8.58167 67.7635 12.616 66.6109 16.6472Z" fill="#E4E4E4"/>
</svg>
