<svg width="86" height="86" viewBox="0 0 86 86" fill="none" xmlns="http://www.w3.org/2000/svg">
<path d="M43 27.5469C39.9437 27.5469 36.956 28.4532 34.4147 30.1512C31.8735 31.8492 29.8928 34.2627 28.7232 37.0863C27.5536 39.91 27.2475 43.0171 27.8438 46.0148C28.4401 49.0124 29.9118 51.7659 32.073 53.927C34.2341 56.0882 36.9876 57.5599 39.9852 58.1562C42.9829 58.7525 46.09 58.4464 48.9137 57.2768C51.7373 56.1072 54.1508 54.1265 55.8488 51.5853C57.5468 49.044 58.4531 46.0563 58.4531 43C58.4531 38.9016 56.825 34.971 53.927 32.073C51.029 29.175 47.0984 27.5469 43 27.5469ZM43 54.4219C40.741 54.4219 38.5327 53.752 36.6543 52.4969C34.776 51.2419 33.3121 49.458 32.4476 47.371C31.5831 45.2839 31.3569 42.9873 31.7976 40.7717C32.2383 38.5561 33.3261 36.5209 34.9235 34.9235C36.5209 33.3261 38.5561 32.2383 40.7717 31.7976C42.9873 31.3569 45.2839 31.5831 47.371 32.4476C49.458 33.3121 51.2419 34.776 52.4969 36.6543C53.752 38.5327 54.4219 40.741 54.4219 43C54.413 46.0265 53.2068 48.9266 51.0667 51.0667C48.9266 53.2068 46.0265 54.413 43 54.4219ZM57.7812 10.0781H28.2188C23.4076 10.0781 18.7934 11.9894 15.3914 15.3914C11.9894 18.7934 10.0781 23.4076 10.0781 28.2188V57.7812C10.0781 62.5924 11.9894 67.2066 15.3914 70.6086C18.7934 74.0106 23.4076 75.9219 28.2188 75.9219H57.7812C62.5924 75.9219 67.2066 74.0106 70.6086 70.6086C74.0106 67.2066 75.9219 62.5924 75.9219 57.7812V28.2188C75.9219 23.4076 74.0106 18.7934 70.6086 15.3914C67.2066 11.9894 62.5924 10.0781 57.7812 10.0781ZM71.8906 57.7812C71.8906 61.5233 70.4041 65.1121 67.7581 67.7581C65.1121 70.4041 61.5233 71.8906 57.7812 71.8906H28.2188C24.4767 71.8906 20.8879 70.4041 18.2419 67.7581C15.5959 65.1121 14.1094 61.5233 14.1094 57.7812V28.2188C14.1094 24.4767 15.5959 20.8879 18.2419 18.2419C20.8879 15.5959 24.4767 14.1094 28.2188 14.1094H57.7812C61.5233 14.1094 65.1121 15.5959 67.7581 18.2419C70.4041 20.8879 71.8906 24.4767 71.8906 28.2188V57.7812ZM63.8281 25.5312C63.8281 26.1957 63.6311 26.8452 63.262 27.3976C62.8928 27.9501 62.3682 28.3806 61.7543 28.6349C61.1405 28.8892 60.465 28.9557 59.8134 28.8261C59.1617 28.6965 58.5631 28.3765 58.0933 27.9067C57.6235 27.4369 57.3036 26.8383 57.1739 26.1866C57.0443 25.535 57.1108 24.8595 57.3651 24.2457C57.6194 23.6318 58.0499 23.1072 58.6024 22.738C59.1548 22.3689 59.8043 22.1719 60.4688 22.1719C61.3597 22.1719 62.2142 22.5258 62.8442 23.1558C63.4742 23.7858 63.8281 24.6403 63.8281 25.5312Z" fill="#E4E4E4"/>
</svg>
