<svg width="66" height="66" viewBox="0 0 66 66" fill="none" xmlns="http://www.w3.org/2000/svg">
<g clip-path="url(#clip0_32_832)">
<path d="M64.311 64.6098H50.9031C49.9547 64.6098 49.1882 63.8433 49.1882 62.8949V41.302C49.1882 33.8965 45.3685 33.8965 44.1083 33.8965C40.7173 33.8965 39.2752 36.5729 38.8075 37.7292C38.5866 38.249 38.4826 39.1324 38.4826 40.3667V62.908C38.4826 63.8565 37.7161 64.6229 36.7678 64.6229H23.3469C22.8922 64.6229 22.4504 64.4411 22.1257 64.1163C21.8009 63.7916 21.619 63.3497 21.6319 62.895C21.6319 62.5312 21.8138 26.3222 21.6319 22.6194C21.606 22.1517 21.7748 21.697 22.0997 21.3592C22.4245 21.0214 22.8662 20.8264 23.3468 20.8264H36.7678C37.7161 20.8264 38.4827 21.5929 38.4827 22.5414V23.5547C40.7433 21.541 44.0043 19.878 48.8634 19.878C59.6078 19.878 66.0259 27.3094 66.0259 39.7559V62.8949C66.0259 63.8433 65.2594 64.6098 64.311 64.6098ZM52.6181 61.18L62.6091 61.1797V39.7557C62.6091 29.297 57.6071 23.3077 48.8764 23.3077C43.0429 23.3077 40.2107 26.218 38.4307 28.8813C38.2229 29.5829 37.5602 30.1027 36.7807 30.1027H36.6899C36.0661 30.1027 35.4945 29.7648 35.1958 29.2192C34.9619 28.7904 34.9099 28.2967 35.0658 27.842V24.2432H25.1009C25.1918 31.4019 25.1009 54.567 25.0749 61.167H35.0528V40.3535C35.0528 38.6256 35.2347 37.3783 35.6245 36.4299C37.1316 32.7012 40.3016 30.4536 44.0953 30.4536C49.5 30.4536 52.6051 34.4032 52.6051 41.289V61.1799H52.6182L52.6181 61.18ZM15.9284 64.6095H2.50755C1.55912 64.6095 0.792644 63.8431 0.792644 62.8946V22.5412C0.792644 21.5928 1.55912 20.8263 2.50755 20.8263H15.9284C16.8769 20.8263 17.6433 21.5928 17.6433 22.5412V62.8947C17.6433 63.8431 16.8769 64.6097 15.9284 64.6097V64.6095ZM4.22258 61.1798H14.2135V24.2561H4.22264V61.1797L4.22258 61.1798ZM9.22446 18.7474L9.13346 18.7474C3.84566 18.7474 0 15.0836 0 10.0427C0 5.01473 3.91063 1.35089 9.31534 1.35089C14.6291 1.35089 18.4229 4.9107 18.5268 10.0037C18.5268 15.0836 14.6162 18.7474 9.22446 18.7474V18.7474ZM9.31534 4.79385C5.79446 4.79385 3.42994 6.91159 3.42994 10.0557C3.42994 13.1478 5.76855 15.3175 9.13352 15.3175H9.2244C12.7323 15.3175 15.0968 13.1998 15.0968 10.0557C15.0319 6.87259 12.7583 4.79385 9.31534 4.79385Z" fill="#E4E4E4"/>
</g>
<defs>
<clipPath id="clip0_32_832">
<rect width="66" height="66" fill="white"/>
</clipPath>
</defs>
</svg>
