<?xml version="1.0" standalone="no"?>
<!DOCTYPE svg PUBLIC "-//W3C//DTD SVG 20010904//EN"
 "http://www.w3.org/TR/2001/REC-SVG-20010904/DTD/svg10.dtd">
<svg version="1.0" xmlns="http://www.w3.org/2000/svg"
 width="336.000000pt" height="336.000000pt" viewBox="0 0 336.000000 336.000000"
 preserveAspectRatio="xMidYMid meet">
<metadata>
Created by potrace 1.14, written by Peter Selinger 2001-2017
</metadata>
<g transform="translate(0.000000,336.000000) scale(0.100000,-0.100000)"
fill="#000000" stroke="none">
<path d="M3085 3088 c-204 -24 -418 -122 -631 -290 -37 -29 -74 -53 -83 -55
-51 -8 -166 -18 -351 -30 -220 -15 -876 -7 -990 11 -14 3 -59 7 -100 11 -41 3
-88 8 -105 10 -123 19 -146 22 -225 30 -36 4 -68 9 -72 11 -16 10 -109 5 -123
-6 -43 -36 0 -106 96 -154 83 -42 88 -42 121 -16 22 17 37 19 109 15 365 -21
545 -28 654 -28 109 0 396 11 460 18 22 2 74 7 115 10 41 3 89 8 105 10 17 2
59 7 95 10 36 3 81 8 100 12 41 7 42 9 -48 -84 -48 -50 -132 -147 -231 -268
-125 -154 -363 -507 -545 -810 -60 -99 -137 -221 -172 -271 l-63 -91 -86 34
c-122 49 -211 65 -330 61 -114 -4 -166 -23 -195 -71 -22 -36 -13 -77 27 -119
29 -30 139 -88 167 -88 22 0 20 -14 -8 -58 -33 -53 -56 -125 -50 -158 8 -46
28 -59 85 -57 72 2 162 49 251 132 l73 68 130 -4 c72 -3 132 -7 134 -9 2 -1
-19 -26 -45 -55 -191 -203 -342 -319 -517 -399 -73 -33 -221 -77 -287 -85 -25
-3 -63 -7 -85 -10 -55 -7 -263 -6 -300 0 -16 3 -44 10 -60 14 -66 18 -100 -29
-40 -55 63 -26 252 -37 383 -23 119 14 166 20 173 24 3 2 21 7 39 10 57 10
191 56 270 92 169 78 304 175 456 330 l112 113 58 -66 c33 -37 64 -72 69 -78
30 -32 138 -184 180 -254 27 -44 61 -87 76 -96 44 -26 93 -21 134 15 70 62
192 274 295 511 37 86 30 82 155 93 33 3 78 7 100 10 22 2 67 7 100 10 84 7
173 19 230 30 81 16 155 79 127 107 -7 7 -98 -3 -242 -27 -14 -2 -50 -7 -80
-10 -30 -3 -62 -8 -70 -10 -8 -2 -37 -7 -65 -10 -27 -3 -77 -9 -109 -15 -33
-5 -61 -8 -63 -6 -3 2 26 80 63 172 183 461 412 1152 417 1255 3 59 -17 96
-60 110 -81 26 -179 -18 -295 -134 -108 -106 -220 -262 -442 -612 -82 -129
-350 -537 -369 -560 -4 -5 -46 -62 -93 -125 -47 -63 -94 -127 -106 -142 -20
-27 -72 -40 -80 -20 -1 5 -33 31 -70 59 -55 42 -64 53 -53 64 14 15 211 311
311 467 85 134 391 599 404 614 5 7 37 49 69 93 72 97 123 163 136 179 6 6 37
43 70 81 113 133 137 154 180 160 22 3 51 8 65 10 14 3 41 7 60 10 239 38 517
112 620 165 116 60 161 130 119 184 -28 36 -127 49 -254 34z m97 -62 c33 -15
3 -61 -67 -101 -81 -48 -368 -130 -519 -150 -27 -3 -54 -9 -60 -12 -33 -20 27
35 90 82 79 60 194 125 264 150 97 35 248 51 292 31z m-450 -546 c26 0 -20
-169 -144 -524 -82 -236 -253 -691 -293 -781 -12 -27 -32 -76 -45 -108 -12
-31 -26 -60 -31 -62 -4 -3 -32 -8 -61 -10 -29 -2 -80 -7 -113 -10 -62 -5 -139
-10 -329 -20 l-109 -6 22 28 c142 185 277 387 507 763 211 346 376 591 440
654 57 58 108 88 132 80 8 -2 18 -4 24 -4z m-1727 -1340 c78 -25 145 -56 145
-68 0 -5 -17 -28 -37 -51 -36 -43 -37 -43 -87 -37 -175 21 -315 68 -343 114
-16 26 7 59 45 65 59 11 208 -2 277 -23z m299 -159 l30 -22 -57 3 c-31 2 -57
7 -57 12 0 18 33 46 44 38 6 -5 24 -18 40 -31z m871 -88 c-19 -77 -183 -406
-228 -458 l-34 -39 -27 17 c-15 10 -30 26 -33 35 -14 38 -170 269 -203 302
-24 24 -100 114 -100 119 0 3 35 6 78 7 83 0 304 14 312 19 3 1 55 6 115 10
61 4 112 9 114 11 10 10 13 2 6 -23z m-1216 8 c12 -8 9 -11 -11 -16 -29 -8
-52 1 -43 16 8 12 36 11 54 0z"/>
</g>
</svg>
